<mxfile host="Electron" modified="2024-05-24T10:23:36.102Z" agent="Mozilla/5.0 (Windows NT 10.0; Win64; x64) AppleWebKit/537.36 (KHTML, like Gecko) draw.io/21.2.8 Chrome/112.0.5615.165 Electron/24.2.0 Safari/537.36" etag="3cdwgScUaMKtR-FOaNlJ" version="21.2.8" type="device">
  <diagram name="Page-1" id="RGrUgLsMVAnbqdiFFfQz">
    <mxGraphModel dx="978" dy="566" grid="1" gridSize="10" guides="1" tooltips="1" connect="1" arrows="1" fold="1" page="1" pageScale="1" pageWidth="1169" pageHeight="827" math="0" shadow="0">
      <root>
        <mxCell id="0" />
        <mxCell id="1" parent="0" />
        <mxCell id="AzzlA01X5Ewzcv5PSElG-16" value="" style="endArrow=block;html=1;rounded=0;endFill=1;" edge="1" parent="1">
          <mxGeometry width="50" height="50" relative="1" as="geometry">
            <mxPoint x="40" y="360" as="sourcePoint" />
            <mxPoint x="720" y="360" as="targetPoint" />
          </mxGeometry>
        </mxCell>
        <mxCell id="AzzlA01X5Ewzcv5PSElG-17" value="" style="endArrow=none;html=1;rounded=0;entryX=0;entryY=1;entryDx=0;entryDy=0;startArrow=oval;startFill=1;targetPerimeterSpacing=10;sourcePerimeterSpacing=6;startSize=12;" edge="1" parent="1" target="AzzlA01X5Ewzcv5PSElG-9">
          <mxGeometry width="50" height="50" relative="1" as="geometry">
            <mxPoint x="80" y="360" as="sourcePoint" />
            <mxPoint x="100" y="200" as="targetPoint" />
          </mxGeometry>
        </mxCell>
        <mxCell id="AzzlA01X5Ewzcv5PSElG-18" value="" style="endArrow=none;html=1;rounded=0;entryX=0;entryY=1;entryDx=0;entryDy=0;startArrow=oval;startFill=1;targetPerimeterSpacing=10;sourcePerimeterSpacing=6;startSize=12;" edge="1" parent="1" target="AzzlA01X5Ewzcv5PSElG-11">
          <mxGeometry width="50" height="50" relative="1" as="geometry">
            <mxPoint x="150" y="360" as="sourcePoint" />
            <mxPoint x="180" y="109" as="targetPoint" />
          </mxGeometry>
        </mxCell>
        <mxCell id="AzzlA01X5Ewzcv5PSElG-19" value="" style="endArrow=none;html=1;rounded=0;startArrow=oval;startFill=1;targetPerimeterSpacing=10;sourcePerimeterSpacing=6;startSize=12;entryX=0;entryY=1;entryDx=0;entryDy=0;" edge="1" parent="1" target="AzzlA01X5Ewzcv5PSElG-13">
          <mxGeometry width="50" height="50" relative="1" as="geometry">
            <mxPoint x="230" y="360" as="sourcePoint" />
            <mxPoint x="250" y="220" as="targetPoint" />
          </mxGeometry>
        </mxCell>
        <mxCell id="AzzlA01X5Ewzcv5PSElG-20" value="" style="endArrow=none;html=1;rounded=0;startArrow=oval;startFill=1;targetPerimeterSpacing=10;sourcePerimeterSpacing=6;startSize=12;entryX=0;entryY=1;entryDx=0;entryDy=0;" edge="1" parent="1" target="AzzlA01X5Ewzcv5PSElG-15">
          <mxGeometry width="50" height="50" relative="1" as="geometry">
            <mxPoint x="290" y="360" as="sourcePoint" />
            <mxPoint x="306" y="240" as="targetPoint" />
          </mxGeometry>
        </mxCell>
        <mxCell id="AzzlA01X5Ewzcv5PSElG-8" value="" style="verticalLabelPosition=bottom;verticalAlign=top;html=1;strokeWidth=2;shape=mxgraph.arrows2.arrow;dy=0.4;dx=79;notch=0;fillColor=#000000;strokeColor=none;" vertex="1" parent="1">
          <mxGeometry x="70" y="30" width="670" height="90" as="geometry" />
        </mxCell>
        <mxCell id="AzzlA01X5Ewzcv5PSElG-9" value="&lt;font color=&quot;#ffffff&quot; style=&quot;font-size: 21px;&quot; face=&quot;Garamond&quot;&gt;&lt;b style=&quot;&quot;&gt;Phase 0 :&lt;/b&gt; Beacon Chain&lt;/font&gt;" style="text;html=1;strokeColor=none;fillColor=none;align=left;verticalAlign=middle;whiteSpace=wrap;rounded=0;" vertex="1" parent="1">
          <mxGeometry x="80" y="60" width="420" height="30" as="geometry" />
        </mxCell>
        <mxCell id="AzzlA01X5Ewzcv5PSElG-10" value="" style="verticalLabelPosition=bottom;verticalAlign=top;html=1;strokeWidth=2;shape=mxgraph.arrows2.arrow;dy=0.4;dx=79;notch=0;fillColor=#333333;strokeColor=none;" vertex="1" parent="1">
          <mxGeometry x="140" y="90" width="600" height="90" as="geometry" />
        </mxCell>
        <mxCell id="AzzlA01X5Ewzcv5PSElG-11" value="&lt;font color=&quot;#ffffff&quot; style=&quot;font-size: 21px;&quot; face=&quot;Garamond&quot;&gt;&lt;b style=&quot;&quot;&gt;Phase 1 :&lt;/b&gt;&amp;nbsp;Shards&lt;/font&gt;" style="text;html=1;strokeColor=none;fillColor=none;align=left;verticalAlign=middle;whiteSpace=wrap;rounded=0;" vertex="1" parent="1">
          <mxGeometry x="150" y="120" width="420" height="30" as="geometry" />
        </mxCell>
        <mxCell id="AzzlA01X5Ewzcv5PSElG-12" value="" style="verticalLabelPosition=bottom;verticalAlign=top;html=1;strokeWidth=2;shape=mxgraph.arrows2.arrow;dy=0.4;dx=79;notch=0;fillColor=#666666;strokeColor=none;" vertex="1" parent="1">
          <mxGeometry x="220" y="150" width="520" height="90" as="geometry" />
        </mxCell>
        <mxCell id="AzzlA01X5Ewzcv5PSElG-13" value="&lt;font color=&quot;#ffffff&quot; style=&quot;font-size: 21px;&quot; face=&quot;Garamond&quot;&gt;&lt;b style=&quot;&quot;&gt;Phase 2 :&lt;/b&gt;&amp;nbsp;Enabling State Transaction&lt;/font&gt;" style="text;html=1;strokeColor=none;fillColor=none;align=left;verticalAlign=middle;whiteSpace=wrap;rounded=0;" vertex="1" parent="1">
          <mxGeometry x="230" y="180" width="420" height="30" as="geometry" />
        </mxCell>
        <mxCell id="AzzlA01X5Ewzcv5PSElG-14" value="" style="verticalLabelPosition=bottom;verticalAlign=top;html=1;strokeWidth=2;shape=mxgraph.arrows2.arrow;dy=0.4;dx=79;notch=0;fillColor=#999999;strokeColor=none;" vertex="1" parent="1">
          <mxGeometry x="280" y="212" width="460" height="90" as="geometry" />
        </mxCell>
        <mxCell id="AzzlA01X5Ewzcv5PSElG-15" value="&lt;font color=&quot;#ffffff&quot; style=&quot;font-size: 21px;&quot; face=&quot;Garamond&quot;&gt;&lt;b style=&quot;&quot;&gt;Phase 3 :&lt;/b&gt;&amp;nbsp;And beyond&lt;/font&gt;" style="text;html=1;strokeColor=none;fillColor=none;align=left;verticalAlign=middle;whiteSpace=wrap;rounded=0;" vertex="1" parent="1">
          <mxGeometry x="290" y="242" width="420" height="30" as="geometry" />
        </mxCell>
        <mxCell id="AzzlA01X5Ewzcv5PSElG-21" value="2019" style="text;html=1;strokeColor=none;fillColor=none;align=center;verticalAlign=middle;whiteSpace=wrap;rounded=0;fontFamily=Garamond;fontSize=15;" vertex="1" parent="1">
          <mxGeometry x="50" y="370" width="60" height="30" as="geometry" />
        </mxCell>
        <mxCell id="AzzlA01X5Ewzcv5PSElG-22" value="2020" style="text;html=1;strokeColor=none;fillColor=none;align=center;verticalAlign=middle;whiteSpace=wrap;rounded=0;fontFamily=Garamond;fontSize=15;" vertex="1" parent="1">
          <mxGeometry x="120" y="370" width="60" height="30" as="geometry" />
        </mxCell>
        <mxCell id="AzzlA01X5Ewzcv5PSElG-23" value="2021" style="text;html=1;strokeColor=none;fillColor=none;align=center;verticalAlign=middle;whiteSpace=wrap;rounded=0;fontFamily=Garamond;fontSize=15;" vertex="1" parent="1">
          <mxGeometry x="200" y="370" width="60" height="30" as="geometry" />
        </mxCell>
        <mxCell id="AzzlA01X5Ewzcv5PSElG-24" value="2022 and beyond" style="text;html=1;strokeColor=none;fillColor=none;align=center;verticalAlign=middle;whiteSpace=wrap;rounded=0;fontFamily=Garamond;fontSize=15;" vertex="1" parent="1">
          <mxGeometry x="230" y="370" width="170" height="30" as="geometry" />
        </mxCell>
      </root>
    </mxGraphModel>
  </diagram>
</mxfile>
